<svg width="363" height="396" viewBox="0 0 363 396" fill="none" xmlns="http://www.w3.org/2000/svg">
<path opacity="0.33" d="M0.439453 101.933L104.527 101.586L77.975 95.7932C77.975 95.7932 79.0587 63.9337 66.0539 70.3055C62.3227 72.1058 59.1039 74.93 56.7245 78.491C54.3451 82.052 52.89 86.2229 52.507 90.5798C52.507 90.5798 47.6302 77.8359 40.5859 82.4701C33.5415 87.1042 30.2904 95.2139 30.2904 95.2139C30.2904 95.2139 27.7619 86.0444 23.246 85.5243C19.3849 85.0797 12.0403 93.8015 8.19042 98.7074L0.439453 101.933Z" fill="#DDCACA"/>
<path opacity="0.33" d="M276.72 146.587L362.583 146.329L340.68 142.025C340.68 142.025 341.574 118.355 330.846 123.089C320.118 127.823 319.671 138.152 319.671 138.152C319.671 138.152 315.648 128.684 309.837 132.127C306.23 134.367 303.287 137.649 301.344 141.595C301.344 141.595 299.258 134.783 295.533 134.396C292.348 134.066 286.289 140.546 283.114 144.191L276.72 146.587Z" fill="#DDCACA"/>
<path opacity="0.33" d="M133.531 42.2669L219.395 41.9803L197.492 37.2018C197.492 37.2018 198.386 10.9202 187.658 16.1765C184.58 17.6617 181.925 19.9914 179.962 22.9289C177.999 25.8665 176.799 29.3071 176.483 32.9012C176.483 32.9012 172.46 22.3886 166.649 26.2113C160.838 30.034 158.156 36.7239 158.156 36.7239C158.156 36.7239 156.07 29.1599 152.345 28.7308C149.16 28.364 143.101 35.5589 139.925 39.6058L133.531 42.2669Z" fill="#DDCACA"/>
<path d="M306.742 27.8219L300.212 30.245L297.381 21.5248C296.139 17.6928 294.204 14.1599 291.685 11.1279C289.166 8.09587 286.113 5.62426 282.7 3.8543C279.287 2.08434 275.581 1.05074 271.794 0.812561C268.007 0.574382 264.214 1.1363 260.63 2.4662C257.046 3.7961 253.743 5.86791 250.909 8.56321C248.075 11.2585 245.765 14.5245 244.112 18.1744C242.459 21.8244 241.495 25.7868 241.276 29.8351C241.056 33.8835 241.585 37.9385 242.832 41.7683L245.663 50.4886L239.112 52.9197C236.657 53.8431 234.642 55.7661 233.507 58.2701C232.372 60.7741 232.208 63.6561 233.052 66.2884L251.479 123.033C252.331 125.678 254.128 127.855 256.478 129.087C258.827 130.319 261.537 130.505 264.015 129.606L331.645 104.508C332.876 104.052 334.011 103.341 334.984 102.415C335.958 101.49 336.751 100.369 337.32 99.1154C337.888 97.8622 338.219 96.5016 338.295 95.1113C338.372 93.721 338.191 92.3283 337.763 91.0128L319.336 34.2678C318.462 31.6309 316.645 29.4719 314.285 28.2637C311.924 27.0555 309.212 26.8966 306.742 27.8219ZM255.155 37.1949C253.779 32.9576 254.034 28.3096 255.864 24.2733C257.694 20.237 260.948 17.143 264.912 15.672C268.876 14.2011 273.224 14.4736 277 16.4297C280.775 18.3858 283.67 21.8651 285.046 26.1024L287.878 34.8226L257.987 45.9152L255.155 37.1949ZM294.351 88.9162L299.056 103.407C299.1 103.554 299.116 103.708 299.103 103.86C299.09 104.013 299.049 104.162 298.982 104.297C298.914 104.433 298.823 104.553 298.712 104.65C298.601 104.747 298.473 104.82 298.335 104.864L291.845 107.272C291.582 107.364 291.296 107.343 291.047 107.214C290.798 107.084 290.607 106.856 290.513 106.578L285.807 92.0869C282.862 91.9844 280.044 90.7831 277.841 88.6916C275.639 86.6 274.19 83.7502 273.748 80.6365C273.305 77.5228 273.896 74.3417 275.419 71.6452C276.941 68.9486 279.298 66.9068 282.081 65.874C284.864 64.8411 287.898 64.8824 290.656 65.9906C293.413 67.0989 295.721 69.2042 297.178 71.9413C298.636 74.6783 299.151 77.8745 298.634 80.9751C298.118 84.0758 296.602 86.8853 294.351 88.9162H294.351Z" fill="#B3ADEC"/>
<path d="M262.009 308.154C260.403 304.806 264.165 301.222 267.63 300.56C271.095 299.898 275.019 300.405 277.778 298.069C281.462 294.95 281.273 288.148 285.355 285.658C288.631 283.66 292.969 285.566 296.439 283.987C300.751 282.024 301.964 275.603 306.194 273.446C309.566 271.728 313.976 273.67 315.697 277.215C317.419 280.759 316.627 285.34 314.24 288.413C312.374 290.816 309.611 292.5 308.451 295.367C306.635 299.855 309.501 305.296 307.83 309.848C304.744 318.257 290.165 315.725 287.633 324.343C287.069 326.261 287.306 328.329 287.159 330.334C286.722 336.297 282.79 341.507 277.933 344.477C273.076 347.447 267.393 348.478 261.811 348.895C259.531 349.066 257.126 349.116 255.094 347.998C253.18 346.945 251.849 344.988 250.81 342.973C244.107 329.972 241.343 313.03 262.009 308.154" fill="#78BA9A"/>
<path d="M165.429 229.878C169.034 227.332 167.029 221.076 163.696 218.137C160.363 215.199 155.879 213.214 154.244 208.939C152.061 203.231 156.094 196.077 153.131 190.786C150.753 186.54 145.039 185.787 142.217 181.863C138.71 176.988 141.03 169.338 137.72 164.308C135.082 160.299 129.271 159.538 125.433 162.221C121.595 164.904 119.861 170.314 120.682 175.137C121.325 178.909 123.332 182.489 122.957 186.302C122.371 192.272 116.241 196.246 115.463 202.192C114.027 213.172 131.048 219.851 128.902 230.698C128.424 233.113 127.005 235.173 126.033 237.412C123.141 244.072 124.413 252.175 127.935 258.479C131.457 264.783 136.954 269.544 142.689 273.584C145.033 275.235 147.576 276.837 150.381 276.949C153.02 277.055 155.547 275.818 157.793 274.332C172.287 264.741 184.788 248.398 165.429 229.878" fill="#FFA938"/>
<path d="M249.062 315.013C254.104 312.688 258.643 308.389 262.407 304.236C272.559 293.035 278.852 278.406 282.162 263.348C285.157 249.721 285.826 235.63 285.2 221.684C285.147 220.503 283.422 220.497 283.475 221.684C284.882 253.016 279.063 291.465 252.832 310.536C251.373 311.651 249.82 312.617 248.192 313.421C247.176 313.89 248.053 315.478 249.062 315.013Z" fill="#E1806D"/>
<path d="M268.742 209.971C268.742 209.971 270.403 199.82 282.983 198.213C282.983 198.213 278.394 210.225 268.742 209.971Z" fill="#E1806D"/>
<path d="M264.618 224.973C264.618 224.973 268.45 215.518 281.033 217.095C281.033 217.095 273.948 227.629 264.618 224.973Z" fill="#E1806D"/>
<path d="M259.274 238.196C259.274 238.196 264.991 229.899 276.923 234.45C276.923 234.45 267.81 243.02 259.274 238.196Z" fill="#E1806D"/>
<path d="M270.674 194.21C270.674 194.21 272.307 184.232 284.673 182.652C284.673 182.652 280.162 194.46 270.674 194.21Z" fill="#E1806D"/>
<path d="M270.842 176.87C270.842 176.87 263.801 170.091 269.116 158.051C269.116 158.051 276.08 168.408 270.842 176.87Z" fill="#E1806D"/>
<path d="M270.885 187.154C270.885 187.154 261.566 185.316 260.204 172.082C260.204 172.082 271.207 177.014 270.885 187.154Z" fill="#E1806D"/>
<path d="M269.955 202.356C269.955 202.356 260.637 200.518 259.274 187.284C259.274 187.284 270.278 192.216 269.955 202.356Z" fill="#E1806D"/>
<path d="M267.536 216.594C267.536 216.594 258.361 214.061 257.869 200.758C257.869 200.758 268.522 206.503 267.536 216.594Z" fill="#E1806D"/>
<path d="M263.308 230.818C263.308 230.818 254.133 228.285 253.642 214.982C253.642 214.982 264.295 220.726 263.308 230.818Z" fill="#E1806D"/>
<path d="M156.249 70.0426H250.663C253.256 70.0426 255.823 70.5885 258.219 71.6493C260.614 72.71 262.791 74.2647 264.625 76.2247C266.458 78.1846 267.912 80.5115 268.905 83.0723C269.897 85.6331 270.408 88.3778 270.408 91.1496V329.616C270.408 332.388 269.897 335.133 268.905 337.694C267.912 340.254 266.458 342.581 264.625 344.541C262.791 346.501 260.614 348.056 258.219 349.117C255.823 350.177 253.256 350.723 250.663 350.723H156.249C151.012 350.723 145.99 348.5 142.287 344.541C138.584 340.583 136.504 335.214 136.504 329.616V91.1495C136.504 85.5516 138.584 80.183 142.287 76.2247C145.99 72.2663 151.012 70.0426 156.249 70.0426Z" fill="#6756AD"/>
<path d="M250.398 78.2959H156.513C148.876 78.2959 142.686 84.9141 142.686 93.078V326.021C142.686 334.185 148.876 340.803 156.513 340.803H250.398C258.035 340.803 264.226 334.185 264.226 326.021V93.078C264.226 84.9141 258.035 78.2959 250.398 78.2959Z" fill="#EFEBEB"/>
<path d="M239.824 78.2959H231.92C230.755 78.2959 229.638 78.7905 228.815 79.6709C227.991 80.5513 227.529 81.7453 227.529 82.9903V86.3449C227.529 86.9613 227.415 87.5718 227.194 88.1413C226.974 88.7109 226.65 89.2284 226.243 89.6643C225.835 90.1002 225.351 90.446 224.818 90.682C224.285 90.9179 223.714 91.0393 223.137 91.0393H187.889C187.313 91.0393 186.742 90.9179 186.209 90.682C185.676 90.446 185.192 90.1002 184.784 89.6643C184.377 89.2284 184.053 88.7109 183.832 88.1413C183.612 87.5718 183.498 86.9613 183.498 86.3449V82.9903C183.498 81.7453 183.035 80.5512 182.212 79.6709C181.388 78.7905 180.271 78.2959 179.107 78.2959H156.663V75.8874H239.824V78.2959Z" fill="#6756AD"/>
<path d="M207.076 125.372C208.528 124.559 209.681 123.254 210.351 121.666C211.022 120.078 211.171 118.298 210.775 116.61C210.38 114.922 209.462 113.423 208.168 112.351C206.875 111.279 205.28 110.697 203.637 110.697C201.995 110.697 200.4 111.279 199.106 112.351C197.812 113.423 196.894 114.922 196.499 116.61C196.103 118.298 196.253 120.078 196.923 121.666C197.593 123.254 198.746 124.559 200.198 125.372C197.873 126.153 195.842 127.696 194.398 129.778C192.955 131.861 192.172 134.375 192.165 136.958V143.086H215.111V136.958C215.104 134.374 214.321 131.86 212.877 129.778C211.433 127.696 209.402 126.153 207.076 125.372Z" fill="#37366A"/>
<path d="M196.571 258.622C196.571 258.622 202.485 268.384 203.824 264.154C205.162 259.924 205.982 257.334 205.982 257.334C205.982 257.334 204.302 254.391 203.413 255.297C202.483 256.244 201.276 254.523 201.276 254.523L196.571 258.622Z" fill="#F5BA9A"/>
<path d="M225.799 208.139L228.243 192.971C229.847 192.418 231.497 191.093 230.932 189.044C230.782 188.581 230.53 188.164 230.196 187.829C229.863 187.494 229.458 187.251 229.016 187.121C228.684 186.987 226.976 186.462 226.856 187.166C226.858 187.156 227.786 181.699 227.786 181.699L211.146 173.115C211.146 173.115 209.629 184.002 209.612 184.129C209.036 183.827 208.412 183.644 207.772 183.591C207.339 183.688 206.934 183.893 206.59 184.191C206.245 184.488 205.973 184.869 205.793 185.302C204.928 187.365 206.603 189.974 208.694 190.01C208.694 190.01 208.979 194.894 210.039 196.627C211.098 198.359 215.991 199.557 215.991 199.557L215.454 206.161L225.799 208.139Z" fill="#F5BA9A"/>
<path d="M231.42 209.382C223.9 207.127 213.34 205.142 213.34 205.142L206.333 258.48L235.849 257.506L231.42 209.382Z" fill="#FFA938"/>
<path d="M231.42 209.382C241.131 212.175 251.029 214.163 261.026 215.325C258.779 204.393 257.548 196.035 254.61 186.75C257.415 185.99 262.889 184.494 265.695 183.735C265.695 183.735 274.991 218.356 272.169 222.972C267.368 230.827 243.453 225.654 243.453 225.654L232.141 223.499L231.42 209.382Z" fill="#FFA938"/>
<path d="M180.87 221.125C180.87 221.125 212.552 204.557 214.009 205.168C215.465 205.779 216.702 213.458 216.702 213.458C207.27 219.617 197.504 225.173 187.456 230.094L203.611 253.6L195.563 259.771C195.563 259.771 173.382 233.12 174.225 227.612C174.875 223.362 180.87 221.125 180.87 221.125Z" fill="#FFA938"/>
<path d="M265.217 183.865C265.217 183.865 263.906 174.066 263.749 173.787C263.592 173.507 263.592 171.778 261.238 172.195C261.238 172.195 261.081 169.09 259.722 169.034C258.754 169.025 257.788 169.138 256.845 169.37C256.845 169.37 255.314 161.41 254.321 160.03C253.236 158.523 251.719 162.492 254.073 172.195C254.073 172.195 255.377 178.794 254.988 179.036C253.935 179.693 252.487 179.574 250.484 175.912C248.356 172.022 245.704 173.34 247.012 176.359C248.319 179.378 250.172 183.284 251.375 184.347C252.578 185.409 255.119 185.249 255.119 185.249L255.492 186.51L265.217 183.865Z" fill="#F5BA9A"/>
<path d="M235.849 257.506C232.294 315.226 220.224 386.461 220.224 386.461L232.045 391.809H206.872L223.383 265.842H217.727L175.961 391.89H150.815L165.121 386.314L206.872 254.38L235.849 257.506Z" fill="#594656"/>
<path d="M229.794 187.524C231.201 184.516 232.847 177.217 228.575 175.187C226.412 174.108 224.334 172.843 222.363 171.402C221.087 170.455 219.636 169.812 218.107 169.518C216.579 169.223 215.009 169.283 213.504 169.695C213.022 169.835 212.552 170.023 212.103 170.255C209.12 171.82 207.107 180.291 207.107 180.291L210.037 181.076C210.037 181.076 213.305 196.613 218.682 199.806L224.052 201.022L227.229 201.784L229.794 187.524Z" fill="#B96944"/>
<path d="M225.9 174.11C225.922 173.181 225.889 172.252 225.799 171.327C225.763 170.951 225.207 170.947 225.244 171.327C225.333 172.252 225.367 173.181 225.344 174.11C225.347 174.187 225.377 174.26 225.429 174.313C225.481 174.367 225.55 174.397 225.622 174.397C225.694 174.397 225.764 174.367 225.815 174.313C225.867 174.26 225.898 174.187 225.9 174.11Z" fill="#B96944"/>
<path d="M225.901 174.227C226.223 173.921 226.467 173.532 226.61 173.098C226.864 172.612 227.151 172.147 227.469 171.707C227.687 171.403 227.204 171.107 226.99 171.407C226.735 171.759 226.5 172.127 226.285 172.509C226.102 172.838 225.928 173.506 225.62 173.714C225.319 173.919 225.597 174.433 225.901 174.227Z" fill="#B96944"/>
<path opacity="0.25" d="M123.128 307.123C123.128 305.961 96.4851 305.019 63.6194 305.019C30.7538 305.019 4.11084 305.961 4.11084 307.123C4.11084 308.285 30.7537 309.227 63.6194 309.227C96.4851 309.227 123.128 308.285 123.128 307.123Z" fill="#6756AD"/>
<path d="M94.9239 85.6922C93.7389 85.4549 92.5405 85.3021 91.3365 85.2346C89.2069 85.0227 87.2639 86.4976 85.6519 88.0005C84.0958 89.5767 82.8047 91.427 81.8349 93.4708C80.7687 95.5103 79.7736 97.8729 80.403 100.11C80.6227 100.657 80.7635 101.236 80.8204 101.828C80.7974 103.678 78.4119 104.376 77.666 106.045C76.7442 108.108 78.6265 110.887 77.3503 112.722C76.7133 113.638 75.4875 113.926 74.8842 114.868C74.4883 115.665 74.3422 116.577 74.4674 117.469C74.4498 117.553 74.4514 117.641 74.472 117.724C74.4926 117.808 74.5316 117.885 74.5858 117.948C74.64 118.012 74.7077 118.061 74.7833 118.092C74.8589 118.122 74.9401 118.132 75.0202 118.122C81.8365 118.822 88.5826 117.246 95.3988 117.947C96.2189 118.063 97.0482 118.085 97.8727 118.012C99.0445 117.8 100.178 117.394 101.234 116.811C107.126 113.94 113.023 113.196 118.78 110.029C119.035 109.923 119.251 109.733 119.399 109.488C119.479 109.281 119.503 109.055 119.468 108.834C119.379 108.022 119.074 107.253 118.59 106.619C118.107 105.985 117.464 105.512 116.737 105.255C115.238 104.752 113.439 105.192 112.187 104.176C111.771 103.762 111.437 103.264 111.205 102.71C110.973 102.156 110.847 101.557 110.836 100.95C110.595 98.5008 110.856 95.6666 109.197 93.9574C107.898 92.619 105.813 92.4732 104.508 91.1407C103.851 90.2971 103.267 89.3906 102.765 88.4326C101.009 85.8198 98.0192 84.3041 94.9239 85.6922" fill="#594656"/>
<path d="M83.5327 169.89L45.5387 298.424L30.5847 304.588H52.7767L95.6745 183.493C95.809 183.114 96.0484 182.787 96.3609 182.556C96.6734 182.325 97.0442 182.202 97.424 182.202C97.6864 182.202 97.9459 182.261 98.1856 182.375C98.4253 182.489 98.6398 182.656 98.8153 182.865C98.9907 183.073 99.1231 183.319 99.2039 183.586C99.2846 183.853 99.312 184.135 99.2841 184.414L87.9806 304.588H110.444L95.4453 299.286C95.4453 299.286 109.419 229.408 112.529 207.543C115.64 185.679 111.132 170.23 111.132 170.23C111.132 170.23 96.5696 165.293 83.5327 169.89Z" fill="#53648C"/>
<path d="M83.9778 123.629C87.4605 119.74 101.305 119.293 106.309 121.49C111.314 123.687 120.522 152.107 120.522 152.107L111.364 155.95L105.682 132.19L87.8714 129.567L83.9778 123.629Z" fill="#E1806D"/>
<path d="M107.377 135.68C108.257 133.443 108.892 131.104 109.27 128.71C109.603 125.674 105.741 122.704 105.741 122.704L84.7864 128.51L86.0892 141.852L83.0146 168.813L109.64 169.87L106.965 135.793" fill="#E1806D"/>
<path d="M86.3823 136.449C86.3032 136.449 86.2256 136.426 86.1583 136.381C86.091 136.337 86.0365 136.273 86.0011 136.198C85.9657 136.122 85.9507 136.037 85.9578 135.953C85.9648 135.869 85.9937 135.788 86.0411 135.721L87.5304 133.6C87.5639 133.553 87.6059 133.512 87.654 133.482C87.7021 133.451 87.7554 133.431 87.8108 133.422C87.8662 133.414 87.9226 133.417 87.9768 133.432C88.031 133.447 88.082 133.473 88.1267 133.509C88.1715 133.545 88.2091 133.59 88.2376 133.641C88.2661 133.693 88.2847 133.75 88.2926 133.809C88.3004 133.868 88.2972 133.929 88.2832 133.986C88.2691 134.044 88.2446 134.099 88.2109 134.147L86.7234 136.267C86.6836 136.323 86.6321 136.369 86.5729 136.401C86.5137 136.433 86.4485 136.449 86.3823 136.449Z" fill="#5D95BA"/>
<path d="M73.0815 173.406C74.6828 172.409 76.2841 171.413 77.8855 170.416L73.0815 173.406Z" fill="#8FCAEC"/>
<path d="M93.8232 120.42C93.5319 117.444 94.955 114.427 90.4652 112.504C84.2755 109.854 82.9477 87.0368 94.1286 86.9856C105.31 86.9344 104.761 101.995 104.717 106.467C104.672 110.938 100.989 112.077 100.068 113.696C99.148 115.314 99.9426 120.42 99.9426 120.42L93.8232 120.42Z" fill="#F5BA9A"/>
<path d="M87.4795 103.14C87.4196 103.58 87.2427 103.992 86.9699 104.327C86.6971 104.662 86.34 104.907 85.941 105.031C85.5419 105.156 85.1178 105.155 84.7191 105.03C84.3204 104.904 83.9639 104.658 83.692 104.322C83.4201 103.986 83.2443 103.573 83.1854 103.134C83.1266 102.694 83.1872 102.245 83.3601 101.841C83.533 101.437 83.8108 101.094 84.1606 100.854C84.5104 100.614 84.9173 100.486 85.333 100.486C85.9456 100.537 86.5146 100.844 86.9165 101.341C87.3184 101.838 87.5207 102.484 87.4795 103.14Z" fill="#F5BA9A"/>
<path d="M105.392 103.743C106.578 103.743 107.539 102.555 107.539 101.089C107.539 99.624 106.578 98.4359 105.392 98.4359C104.207 98.4359 103.246 99.624 103.246 101.089C103.246 102.555 104.207 103.743 105.392 103.743Z" fill="#F5BA9A"/>
<path d="M151.686 149.401L148.37 140.42L54.6317 179.758C51.8258 175.698 47.7584 172.84 43.1592 171.695C38.56 170.551 33.7298 171.196 29.5353 173.515C25.3407 175.834 22.0562 179.674 20.271 184.347C18.4857 189.021 18.3165 194.221 19.7937 199.016C21.2709 203.81 24.2978 207.885 28.3315 210.51C32.3653 213.135 37.1418 214.137 41.8043 213.337C46.4667 212.537 50.7101 209.988 53.7731 206.146C56.8361 202.304 58.5184 197.421 58.5181 192.373C58.5163 191.512 58.4661 190.653 58.3676 189.799L129.754 158.895L133.674 168.113L142.381 163.849L139.316 156.514L142.138 154.917L145.457 161.974L151.686 158.418L148.235 150.894L151.686 149.401ZM38.6562 206.205C36.097 206.205 33.5953 205.394 31.4674 203.874C29.3395 202.354 27.681 200.194 26.7016 197.666C25.7223 195.139 25.466 192.357 25.9653 189.674C26.4646 186.991 27.6969 184.526 29.5066 182.592C31.3162 180.657 33.6218 179.34 36.1318 178.806C38.6418 178.272 41.2435 178.546 43.6079 179.593C45.9723 180.64 47.9931 182.413 49.415 184.688C50.8368 186.963 51.5957 189.637 51.5957 192.373C51.5957 196.041 50.2324 199.56 47.8058 202.154C45.3792 204.748 42.0879 206.205 38.6562 206.205Z" fill="#B3ADEC"/>
<path d="M83.9776 123.629C83.9776 123.629 60.3429 146.125 60.2133 150.3C60.0837 154.476 74.1384 176.439 74.1384 176.439L81.164 171.69L71.3242 152L87.333 135.681C87.333 135.681 87.8573 139.472 89.1378 140.504L89.8503 125.492L83.9776 123.629Z" fill="#E1806D"/>
<path d="M77.8748 115.493C74.802 115.662 61.1853 117.144 61.1853 117.144C61.1853 117.144 63.1766 108.405 69.5301 108.062C77.8748 107.611 77.8748 115.493 77.8748 115.493Z" fill="#594656"/>
<path d="M85.8006 101.46C85.8006 101.46 96.8351 100.356 98.768 94.7879C98.768 94.7879 102.432 99.7947 104.578 99.5435C104.578 99.5435 104.93 92.9556 103.595 92.0644C102.261 91.1732 85.3333 93.0112 85.3333 93.0112C85.0985 95.8368 85.256 98.684 85.8006 101.46Z" fill="#594656"/>
<path d="M74.4336 176.171C74.4336 176.171 77.4482 182.965 77.6209 183.13C77.7936 183.295 78.1579 184.55 79.7778 183.681C79.7778 183.681 80.5456 185.896 81.5441 185.61C82.2483 185.383 82.9252 185.069 83.5608 184.674C83.5608 184.674 84.7715 186.398 85.6686 185.487C86.7173 184.422 85.7252 183.24 84.9772 181.956C84.9772 181.956 82.6414 177.482 82.8724 177.213C83.4982 176.483 84.5736 176.221 86.7986 178.396C89.1615 180.706 90.8084 179.112 89.2238 177.236C87.6391 175.36 85.4719 172.971 84.3754 172.49C83.2788 172.009 81.469 172.736 81.469 172.736L80.9322 171.911L74.4336 176.171Z" fill="#F5BA9A"/>
<path d="M122.754 161.925C122.754 161.925 121.062 167.068 118.105 167.932C115.149 168.795 98.5718 172.394 98.5718 172.394V165.386L122.754 161.925Z" fill="#E1806D"/>
<path d="M98.5714 166.226H97.3082C97.1835 165.794 97.0289 165.373 96.8456 164.966C96.3274 164.068 89.3884 163.124 89.5154 164.095C89.6423 165.066 90.784 165.306 93.2305 165.79C93.2305 165.79 84.0786 168.163 84.9395 168.938C85.8003 169.713 91.5089 167.932 91.5089 167.932C91.5089 167.932 85.3165 170.085 85.755 171.553C86.006 172.394 92.2819 170.416 92.2819 170.416C92.2819 170.416 85.8908 172.861 87.0235 173.684C88.1563 174.508 95.224 172.654 95.9036 172.394C96.5833 172.134 96.8456 170.73 96.8456 170.73L98.5714 170.416L98.5714 166.226Z" fill="#F5BA9A"/>
<path d="M68.7625 105.391C69.0051 106.473 69.107 107.821 69.6876 108.766C69.9282 109.158 70.521 108.792 70.2784 108.397C69.7426 107.524 69.6467 106.198 69.4223 105.197C69.3198 104.739 68.6598 104.933 68.7625 105.391Z" fill="#594656"/>
<path d="M70.2501 108.834C70.5988 108.169 70.9726 107.521 71.3715 106.89C71.6187 106.499 71.0261 106.133 70.7807 106.521C70.3816 107.152 70.0078 107.8 69.6593 108.465C69.6171 108.548 69.6069 108.646 69.6309 108.737C69.6549 108.829 69.7111 108.906 69.7878 108.954C69.8644 109.002 69.9555 109.016 70.0417 108.994C70.128 108.971 70.2027 108.914 70.2501 108.834Z" fill="#594656"/>
<path d="M96.1717 100.953C96.1416 101.792 96.1703 102.632 96.2574 103.467C96.3044 103.895 96.2665 104.661 96.5443 104.986C96.7031 105.172 97.0366 105.16 97.2381 105.193C97.988 105.318 98.7445 105.409 99.4965 105.517C99.4562 105.413 99.4159 105.309 99.3756 105.205C98.7546 105.839 98.0293 106.346 97.2363 106.698C97.0343 106.79 97.2084 107.105 97.4091 107.014C98.228 106.647 98.9767 106.121 99.6175 105.464C99.6404 105.438 99.6557 105.405 99.6618 105.37C99.6678 105.335 99.6642 105.299 99.6514 105.266C99.6386 105.233 99.6172 105.204 99.5897 105.184C99.5622 105.164 99.5299 105.153 99.4965 105.151C98.7121 105.039 97.1151 105.134 96.7078 104.249C96.3259 103.418 96.487 101.84 96.5138 100.953C96.521 100.718 96.1788 100.718 96.1717 100.953V100.953Z" fill="#F49E78"/>
<path d="M99.6842 103.469C99.7828 102.634 99.2861 100.682 100.27 100.278C101.144 99.9197 101.696 100.697 101.833 101.485C101.919 101.979 102.001 102.475 102.085 102.97C102.125 103.201 102.454 103.103 102.415 102.872C102.209 101.659 102.16 99.5858 100.469 99.8326C98.894 100.062 99.4689 102.395 99.3421 103.469C99.3146 103.702 99.657 103.699 99.6842 103.469Z" fill="#514540"/>
<path d="M90.8559 103.968C90.9544 103.134 90.4577 101.181 91.4415 100.778C92.3157 100.419 92.8673 101.196 93.0045 101.984C93.0905 102.479 93.1727 102.974 93.257 103.469C93.2963 103.7 93.626 103.602 93.5868 103.372C93.3806 102.159 93.3318 100.085 91.6406 100.332C90.0656 100.562 90.6406 102.895 90.5137 103.968C90.4862 104.201 90.8285 104.199 90.8559 103.968H90.8559Z" fill="#514540"/>
<path d="M93.1874 106.089C93.5549 109.132 98.3748 109.742 100.146 107.896C100.304 107.731 100.062 107.472 99.9042 107.637C98.4255 109.179 93.8592 108.819 93.5296 106.089C93.5018 105.859 93.1593 105.856 93.1874 106.089H93.1874Z" fill="#F49E78"/>
<path d="M93.1192 106.6C93.1664 106.442 93.2649 106.307 93.3968 106.22C93.5288 106.133 93.6855 106.1 93.8386 106.125C94.054 106.164 94.1467 105.811 93.9296 105.772C93.6889 105.724 93.4399 105.772 93.2298 105.906C93.0197 106.041 92.863 106.253 92.7893 106.503C92.7209 106.727 93.0511 106.823 93.1192 106.6Z" fill="#F49E78"/>
<g opacity="0.28">
<path opacity="0.28" d="M92.6905 104.876C92.8423 105.285 92.1681 105.951 91.1395 106.187C90.7094 106.297 90.2609 106.298 89.8305 106.188C89.5952 106.137 89.3859 105.994 89.2425 105.788C89.2187 105.732 89.2089 105.67 89.2139 105.609C89.219 105.548 89.2388 105.489 89.2714 105.438C89.3671 105.284 89.4977 105.158 89.6511 105.073C90.0193 104.862 90.4144 104.711 90.8239 104.623C91.7208 104.419 92.5388 104.463 92.6905 104.876Z" fill="#F28279"/>
</g>
<g opacity="0.28">
<path opacity="0.28" d="M103.915 104.04C104.067 104.448 103.393 105.114 102.364 105.35C101.934 105.461 101.486 105.461 101.055 105.351C100.82 105.3 100.611 105.158 100.467 104.952C100.444 104.896 100.434 104.834 100.439 104.772C100.444 104.711 100.464 104.652 100.496 104.601C100.592 104.447 100.723 104.322 100.876 104.237C101.244 104.026 101.639 103.874 102.049 103.786C102.946 103.583 103.764 103.626 103.915 104.04Z" fill="#F28279"/>
</g>
<path d="M85.1901 101.764C85.0394 101.778 84.8932 101.826 84.7608 101.904C84.6284 101.982 84.5128 102.089 84.4213 102.218C84.3299 102.347 84.2647 102.494 84.2299 102.652C84.1952 102.809 84.1916 102.973 84.2195 103.131C84.2354 103.454 84.3616 103.76 84.574 103.99C84.7864 104.221 85.0704 104.36 85.3722 104.381C85.5919 104.398 85.591 104.032 85.3722 104.016C84.467 103.947 84.1794 102.167 85.1901 102.13C85.4096 102.122 85.4106 101.756 85.1901 101.764Z" fill="#F49E78"/>
<path d="M84.2761 102.762C84.4347 102.976 84.6396 103.144 84.8729 103.254C85.1062 103.364 85.361 103.411 85.6153 103.392C85.8339 103.377 85.8355 103.011 85.6153 103.026C85.4061 103.044 85.1961 103.006 85.0044 102.914C84.8127 102.823 84.6455 102.682 84.518 102.504C84.3809 102.32 84.1402 102.58 84.2761 102.762Z" fill="#F49E78"/>
<path d="M105.223 102.393C105.963 102.581 106.372 101.862 106.465 101.176C106.498 100.996 106.495 100.811 106.457 100.633C106.419 100.454 106.346 100.286 106.244 100.139C106.142 99.9925 106.013 99.8698 105.864 99.7791C105.716 99.6885 105.551 99.6319 105.381 99.6129C105.161 99.5916 105.163 99.9575 105.381 99.9786C105.608 100.014 105.814 100.142 105.956 100.336C106.098 100.529 106.165 100.774 106.143 101.018C106.104 101.483 105.886 102.186 105.314 102.04C105.099 101.986 105.008 102.338 105.223 102.393Z" fill="#F49E78"/>
<path d="M105.429 101.314C105.75 101.01 105.959 100.594 106.018 100.141C106.05 99.9106 105.72 99.8112 105.689 100.044C105.642 100.435 105.464 100.794 105.187 101.055C105.023 101.213 105.266 101.471 105.429 101.314L105.429 101.314Z" fill="#F49E78"/>
<path opacity="0.25" d="M254.384 393.493C254.384 392.331 227.741 391.389 194.876 391.389C162.01 391.389 135.367 392.331 135.367 393.493C135.367 394.655 162.01 395.597 194.876 395.597C227.741 395.597 254.384 394.655 254.384 393.493Z" fill="#6756AD"/>
</svg>
